HIERARCHY
ROOT Hips
{
 OFFSET 0.000000 0.000000 0.000000
 CHANNELS 6 Xposition Yposition Zposition Yrotation Xrotation Zrotation
 JOINT Chest
 {
  OFFSET 0.000000 9.303000 0.001900
  CHANNELS 3 Yrotation Xrotation Zrotation
  JOINT Chest2
  {
   OFFSET 0.000000 9.301100 -0.003900
   CHANNELS 3 Yrotation Xrotation Zrotation
   JOINT Chest3
   {
    OFFSET 0.000000 9.262800 0.000000
    CHANNELS 3 Yrotation Xrotation Zrotation
    JOINT Chest4
    {
     OFFSET 0.000000 9.253300 0.000000
     CHANNELS 3 Yrotation Xrotation Zrotation
     JOINT Neck
     {
      OFFSET 0.000000 14.010300 0.000000
      CHANNELS 3 Yrotation Xrotation Zrotation
      JOINT Head
      {
       OFFSET 0.000000 8.657600 -0.008300
       CHANNELS 3 Yrotation Xrotation Zrotation
       End Site
       {
        OFFSET 0.000000 16.540200 -0.004400
       }
      }
     }
     JOINT RightCollar
     {
      OFFSET -2.834100 9.267700 0.000000
      CHANNELS 3 Yrotation Xrotation Zrotation
      JOINT RightShoulder
      {
       OFFSET -13.135200 0.000000 0.000000
       CHANNELS 3 Yrotation Xrotation Zrotation
       JOINT RightElbow
       {
        OFFSET 0.000000 -28.893500 0.000000
        CHANNELS 3 Yrotation Xrotation Zrotation
        JOINT RightWrist
        {
         OFFSET 0.000000 -23.344000 0.000000
         CHANNELS 3 Yrotation Xrotation Zrotation
         End Site
         {
          OFFSET 0.000000 -17.223000 0.000000
         }
        }
       }
      }
     }
     JOINT LeftCollar
     {
      OFFSET 2.834100 9.267700 0.000000
      CHANNELS 3 Yrotation Xrotation Zrotation
      JOINT LeftShoulder
      {
       OFFSET 13.135200 0.000000 0.000000
       CHANNELS 3 Yrotation Xrotation Zrotation
       JOINT LeftElbow
       {
        OFFSET 0.000000 -28.893500 0.000000
        CHANNELS 3 Yrotation Xrotation Zrotation
        JOINT LeftWrist
        {
         OFFSET 0.000000 -23.344000 0.000000
         CHANNELS 3 Yrotation Xrotation Zrotation
         End Site
         {
          OFFSET 0.000000 -17.223000 0.000000
         }
        }
       }
      }
     }
    }
   }
  }
 }
 JOINT RightHip
 {
  OFFSET -7.547200 -0.009500 -0.001000
  CHANNELS 3 Yrotation Xrotation Zrotation
  JOINT RightKnee
  {
   OFFSET 0.000000 -39.762800 0.000900
   CHANNELS 3 Yrotation Xrotation Zrotation
   JOINT RightAnkle
   {
    OFFSET 0.000000 -38.588200 0.001600
    CHANNELS 3 Yrotation Xrotation Zrotation
    JOINT RightToe
    {
     OFFSET 0.000000 -4.693300 10.419700
     CHANNELS 3 Yrotation Xrotation Zrotation
     End Site
     {
      OFFSET 0.000000 -1.379900 5.669300
     }
    }
   }
  }
 }
 JOINT LeftHip
 {
  OFFSET 7.547200 -0.009500 -0.001000
  CHANNELS 3 Yrotation Xrotation Zrotation
  JOINT LeftKnee
  {
   OFFSET 0.000000 -39.762800 0.000900
   CHANNELS 3 Yrotation Xrotation Zrotation
   JOINT LeftAnkle
   {
    OFFSET 0.000000 -38.588200 0.001600
    CHANNELS 3 Yrotation Xrotation Zrotation
    JOINT LeftToe
    {
     OFFSET 0.000000 -4.693300 10.419700
     CHANNELS 3 Yrotation Xrotation Zrotation
     End Site
     {
      OFFSET 0.000000 -1.379900 5.669300
     }
    }
   }
  }
 }
}
MOTION
Frames: 9
Frame Time: 0.008333
-9.041164 46.145072 27.721590 152.904340 -22.505453 -0.932055 -2.918264 10.842039 0.551190 -0.207980 0.735604 0.088600 -0.356539 1.263335 0.150628 -2.737659 9.954694 0.979651 -19.014807 25.787781 -1.796731 -21.949286 4.418794 2.226470 8.089148 -7.542001 -14.759193 11.638948 -26.713575 -12.491180 -178.826204 -50.252270 -149.141760 -3.226108 -29.519501 -71.880724 -17.719232 -16.351132 -0.410445 -23.852173 -30.910797 23.310093 92.266235 -61.611706 -135.642574 11.071077 -36.005207 41.422919 -8.524972 -65.117081 17.549868 -48.592034 80.674287 -51.092159 -9.843569 -1.279835 -0.294608 0.139156 -0.465931 0.114512 -0.242778 -64.462647 27.436989 69.988719 77.591964 67.998314 -10.969075 -3.662906 2.764364 0.136127 0.526860 0.039286
-9.048815 46.143805 27.733277 152.885934 -22.563234 -0.917507 -2.881636 10.851054 0.530667 -0.205071 0.736046 0.088494 -0.351545 1.264132 0.150413 -2.698768 9.963080 0.981065 -18.947447 25.852146 -1.670704 -21.895458 4.497907 2.357554 8.039397 -7.608782 -14.734091 11.619767 -26.689601 -12.553671 -178.948502 -50.217778 -149.059728 -3.219271 -29.550575 -71.903492 -17.837932 -16.425436 -0.339123 -23.775451 -30.894280 23.327600 92.440785 -61.709699 -135.762857 11.044313 -36.036553 41.460437 -8.420252 -65.071511 17.444235 -48.518164 80.667480 -50.981748 -9.831254 -1.262405 -0.296814 0.126112 -0.469812 0.092481 -0.196397 -64.408223 27.402744 69.941678 77.579075 67.956355 -10.976484 -3.637777 2.763743 0.145587 0.530823 0.044835
-9.053743 46.142026 27.747988 152.879050 -22.606928 -0.921492 -2.836130 10.847286 0.532467 -0.201692 0.736614 0.088515 -0.345685 1.265098 0.150439 -2.653072 9.972908 0.984852 -18.890965 25.915609 -1.551766 -21.854327 4.577719 2.482673 7.986862 -7.674274 -14.714316 11.594572 -26.668435 -12.614955 -179.068802 -50.179905 -148.970499 -3.212348 -29.581684 -71.937774 -17.914882 -16.458527 -0.281642 -23.770890 -30.915113 23.390170 92.582877 -61.790705 -135.865613 11.016498 -36.081912 41.497332 -8.343921 -65.041824 17.355912 -48.469972 80.658277 -50.879529 -9.795960 -1.232926 -0.296864 0.074268 -0.484689 0.062300 -0.202212 -64.366021 27.416481 69.877558 77.563779 67.889267 -10.981504 -3.612689 2.760185 0.153108 0.540625 0.053741
-9.054774 46.142050 27.760103 152.866615 -22.673455 -0.928552 -2.777154 10.864946 0.544439 -0.208618 0.749990 0.089220 -0.328850 1.253335 0.150049 -2.656358 10.002194 0.988408 -18.788541 25.960033 -1.446048 -21.817657 4.658441 2.594177 7.998871 -7.749910 -14.709953 11.567735 -26.647382 -12.675739 -179.194786 -50.135055 -148.874113 -3.205120 -29.611444 -71.976194 -17.923141 -16.535301 -0.210982 -23.767281 -30.917191 23.439605 92.703986 -61.856379 -135.963598 10.996693 -36.138152 41.521895 -8.251843 -64.990623 17.255110 -48.458845 80.646765 -50.795330 -9.753116 -1.199319 -0.331486 0.145178 -0.505609 0.065151 -0.197245 -64.304712 27.433623 69.793918 77.547606 67.804400 -10.975670 -3.566922 2.767034 0.142987 0.532565 0.054700
-9.060940 46.141132 27.772055 152.892994 -22.719722 -0.913675 -2.758642 10.860452 0.524494 -0.241753 0.787727 0.089459 -0.315097 1.241025 0.149549 -2.547423 9.978611 0.996613 -18.765369 26.034681 -1.353198 -21.780890 4.741345 2.689814 7.945246 -7.794174 -14.695671 11.545282 -26.622575 -12.736855 -179.327588 -50.084047 -148.773855 -3.193367 -29.636644 -72.018180 -18.001012 -16.568415 -0.153412 -23.777045 -30.922145 23.526428 92.812900 -61.910093 -136.062024 10.989564 -36.199877 41.530470 -8.120615 -64.966459 17.072925 -48.430762 80.656924 -50.705731 -9.732482 -1.183112 -0.327088 0.117449 -0.513602 0.049082 -0.135420 -64.261784 27.351242 69.657852 77.522179 67.663931 -10.986451 -3.517346 2.782600 0.138957 0.523824 0.053586
-9.061099 46.142775 27.780522 152.878894 -22.800744 -0.898779 -2.707134 10.903865 0.519740 -0.238966 0.772990 0.085745 -0.282961 1.231240 0.153560 -2.474903 9.989309 1.004549 -18.746174 26.112246 -1.272722 -21.743364 4.825573 2.771976 7.900900 -7.831160 -14.683545 11.528916 -26.592451 -12.798050 -179.465473 -50.030553 -148.672613 -3.174906 -29.659859 -72.067343 -18.070082 -16.599419 -0.098101 -23.796687 -30.922470 23.628158 92.920682 -61.958106 -136.159435 10.992767 -36.260842 41.524931 -7.997661 -64.901759 16.942573 -48.402623 80.662636 -50.626292 -9.724492 -1.160416 -0.304889 0.103981 -0.528229 0.013219 -0.021720 -64.190660 27.280166 69.520362 77.528110 67.550363 -11.010487 -3.498718 2.774122 0.158980 0.526514 0.071307
-9.063281 46.141465 27.795910 152.923978 -22.828561 -0.908619 -2.697659 10.881179 0.526130 -0.186509 0.737750 0.088899 -0.305873 1.254723 0.151966 -2.434880 10.007897 1.009702 -18.700040 26.179914 -1.203185 -21.703078 4.909614 2.841356 7.901063 -7.867108 -14.679302 11.518116 -26.556523 -12.858920 -179.604500 -49.977212 -148.575277 -3.150725 -29.684610 -72.121914 -18.096590 -16.638659 -0.045958 -23.827879 -30.916496 23.740566 93.053035 -62.007200 -136.270512 11.001617 -36.318187 41.517243 -7.992982 -64.879215 16.881959 -48.435524 80.645532 -50.608686 -9.746488 -1.154911 -0.344927 0.142905 -0.527698 0.023875 -0.018857 -64.165705 27.250594 69.392721 77.480015 67.401616 -11.017076 -3.439498 2.791144 0.130383 0.523392 0.077358
-9.064992 46.141691 27.807140 152.934195 -22.877996 -0.890519 -2.643982 10.861465 0.524885 -0.180958 0.737369 0.089029 -0.345958 1.296312 0.145092 -2.340370 9.983332 1.023908 -18.656402 26.248632 -1.144544 -21.663251 4.994707 2.898390 7.913580 -7.886820 -14.678895 11.517162 -26.518756 -12.919664 -179.740920 -49.931109 -148.486806 -3.127737 -29.712172 -72.173160 -18.113360 -16.674711 0.000656 -23.862097 -30.900835 23.855070 93.229813 -62.061835 -136.412677 11.015129 -36.370063 41.520159 -7.864602 -64.850473 16.708765 -48.437614 80.651502 -50.525388 -9.733281 -1.146143 -0.391458 0.160616 -0.535834 0.028879 0.027650 -64.116411 27.197021 69.327297 77.455279 67.322068 -11.006050 -3.403385 2.796888 0.122749 0.527027 0.078330
-9.063274 46.142324 27.818656 152.971522 -22.931086 -0.898382 -2.614551 10.853311 0.541313 -0.176366 0.736541 0.089201 -0.319511 1.281051 0.148525 -2.299233 9.998435 1.029595 -18.618838 26.318826 -1.094783 -21.629081 5.082331 2.946260 7.926214 -7.888277 -14.677239 11.528378 -26.483820 -12.981117 -179.865621 -49.897998 -148.411940 -3.109203 -29.743693 -72.212334 -18.127378 -16.704451 0.042646 -23.897215 -30.877546 23.962626 93.443606 -62.123241 -136.580084 11.029561 -36.416127 41.538766 -7.795236 -64.814555 16.555176 -48.515120 80.648049 -50.481879 -9.714971 -1.104889 -0.487195 0.226276 -0.586724 0.052191 0.045764 -64.063767 27.167367 69.218282 77.448800 67.211136 -11.039563 -3.441449 2.791192 0.138609 0.586290 0.097085
